<svg width="26" height="26" viewBox="0 0 26 26" fill="none" xmlns="http://www.w3.org/2000/svg">
<path d="M13.0033 0H12.9967C5.82888 0 0 5.8305 0 13C0 15.8438 0.9165 18.4795 2.47487 20.6196L0.85475 25.4491L5.85162 23.8518C7.90725 25.2135 10.3594 26 13.0033 26C20.1711 26 26 20.1679 26 13C26 5.83213 20.1711 0 13.0033 0Z" fill="#4CAF50"/>
<path d="M20.5676 18.3575C20.254 19.2432 19.0093 19.9777 18.0164 20.1922C17.3371 20.3368 16.4499 20.4522 13.4631 19.2139C9.64277 17.6312 7.18252 13.749 6.99077 13.4972C6.80715 13.2453 5.44702 11.4415 5.44702 9.57604C5.44702 7.71055 6.3944 6.80217 6.77627 6.41218C7.08989 6.09205 7.60827 5.9458 8.10552 5.9458C8.26639 5.9458 8.41102 5.95393 8.54102 5.96043C8.92289 5.97668 9.11464 5.99943 9.36652 6.6023C9.68014 7.35792 10.4439 9.22342 10.5349 9.41517C10.6275 9.60692 10.7201 9.86692 10.5901 10.1188C10.4683 10.3788 10.361 10.4942 10.1693 10.7152C9.97752 10.9362 9.79552 11.1052 9.60377 11.3424C9.42827 11.5488 9.23002 11.7698 9.45102 12.1517C9.67202 12.5254 10.4358 13.7718 11.5603 14.7728C13.0114 16.0647 14.1879 16.4774 14.6088 16.6529C14.9224 16.7829 15.2961 16.752 15.5253 16.5083C15.8161 16.1947 16.1753 15.6747 16.5409 15.1628C16.8009 14.7955 17.1291 14.75 17.4736 14.88C17.8246 15.0019 19.682 15.92 20.0639 16.1102C20.4458 16.3019 20.6976 16.3929 20.7903 16.5538C20.8813 16.7147 20.8813 17.4703 20.5676 18.3575Z" fill="#FAFAFA"/>
</svg>
